<?xml version="1.0" encoding="UTF-8" standalone="no"?><!DOCTYPE svg PUBLIC "-//W3C//DTD SVG 1.1//EN" "http://www.w3.org/Graphics/SVG/1.1/DTD/svg11.dtd"><svg width="100%" height="100%" viewBox="0 0 37 16" version="1.1" xmlns="http://www.w3.org/2000/svg" xmlns:xlink="http://www.w3.org/1999/xlink" xml:space="preserve" xmlns:serif="http://www.serif.com/" style="fill-rule:evenodd;clip-rule:evenodd;stroke-linejoin:round;stroke-miterlimit:1.41421;"><g id="loop"><g id="loop_on"><path d="M15.615,1.022c0,-0.564 -0.458,-1.022 -1.023,-1.022l-13.573,0c-0.564,0 -1.022,0.458 -1.022,1.022l0,10.736c0,0.564 0.458,1.022 1.022,1.022l13.573,0c0.565,0 1.023,-0.458 1.023,-1.022l0,-10.736Z" style="fill:#fff;"/><path d="M12.754,12.78c-0.561,2.478 -3.881,3.22 -3.881,3.22c0,0 1.629,-1.451 1.783,-3.22" style="fill:#fff;"/></g><g id="loop_off" opacity="0.5"><path d="M36.103,1.022c0,-0.564 -0.458,-1.022 -1.023,-1.022l-13.573,0c-0.564,0 -1.022,0.458 -1.022,1.022l0,10.736c0,0.564 0.458,1.022 1.022,1.022l13.573,0c0.565,0 1.023,-0.458 1.023,-1.022l0,-10.736Z" style="fill:#fff;"/><path d="M33.242,12.78c-0.561,2.478 -3.881,3.22 -3.881,3.22c0,0 1.629,-1.451 1.783,-3.22" style="fill:#fff;"/></g></g></svg>